<?xml version="1.0" standalone="no"?>
<!DOCTYPE svg PUBLIC "-//W3C//DTD SVG 20010904//EN"
 "http://www.w3.org/TR/2001/REC-SVG-20010904/DTD/svg10.dtd">
<svg version="1.0" xmlns="http://www.w3.org/2000/svg"
 width="1708.000000pt" height="563.000000pt" viewBox="0 0 1708.000000 563.000000"
 preserveAspectRatio="xMidYMid meet">

<g transform="translate(0.000000,563.000000) scale(0.100000,-0.100000)"
fill="#000000" stroke="none">
<path d="M6210 5294 c-222 -16 -491 -84 -655 -167 -289 -145 -539 -453 -635
-779 -59 -202 -71 -280 -77 -488 -8 -285 25 -460 120 -644 72 -139 166 -212
307 -238 229 -43 441 158 416 396 -8 82 -49 162 -135 266 -128 155 -178 265
-188 420 -8 122 15 229 77 355 177 359 609 547 1106 480 240 -32 327 -54 844
-222 580 -188 918 -285 1138 -325 96 -18 158 -21 347 -22 210 -1 238 1 320 22
193 51 307 134 356 260 33 82 33 227 0 294 -65 134 -242 226 -384 199 -29 -5
-95 -28 -147 -52 -237 -105 -286 -114 -549 -106 -195 6 -156 -1 -896 161 -463
101 -719 150 -887 170 -130 16 -385 26 -478 20z"/>
<path d="M16199 5126 c-125 -48 -194 -117 -269 -267 -29 -57 -96 -183 -148
-279 -157 -288 -355 -691 -524 -1070 -38 -85 -70 -156 -72 -157 -2 -2 -36 29
-77 70 -75 74 -171 133 -254 156 -22 6 -85 16 -140 21 -237 24 -526 -49 -770
-194 -57 -34 -112 -58 -150 -66 -33 -7 -132 -44 -220 -83 -249 -109 -369 -155
-510 -197 l-130 -38 -14 31 c-85 193 -100 217 -188 305 -104 104 -195 156
-349 198 -92 26 -113 28 -299 28 -208 1 -233 -2 -387 -50 -111 -34 -187 -67
-318 -139 -63 -34 -128 -65 -143 -69 -15 -4 -92 -35 -170 -70 -263 -118 -503
-206 -607 -222 l-37 -6 -23 63 c-54 152 -177 304 -303 378 -78 46 -196 87
-304 106 -109 19 -331 19 -434 1 -582 -104 -1135 -620 -1407 -1313 -63 -159
-117 -338 -139 -457 -25 -130 -24 -445 1 -581 54 -297 178 -533 354 -676 166
-135 407 -206 606 -180 235 32 471 143 701 331 226 185 524 561 687 865 69
131 69 130 141 290 27 61 46 99 43 85 -61 -251 -68 -461 -25 -719 46 -272 151
-487 312 -638 125 -116 290 -191 473 -213 258 -31 570 85 860 321 401 326 805
951 953 1475 35 124 71 323 71 394 l0 47 143 37 c78 20 152 39 164 42 19 5 12
-14 -52 -138 -172 -337 -290 -697 -316 -964 -24 -246 28 -538 134 -749 124
-248 308 -413 522 -464 62 -16 168 -15 231 0 200 48 490 288 675 558 l36 52
13 -63 c18 -95 58 -215 96 -288 92 -180 208 -260 377 -260 148 0 300 81 473
254 152 153 503 601 680 868 48 73 108 160 134 193 116 148 212 321 232 421
14 70 -2 129 -49 184 -69 80 -150 95 -243 44 -67 -37 -125 -105 -192 -229
-101 -184 -462 -738 -624 -955 -113 -152 -318 -349 -340 -327 -17 16 45 331
117 602 89 329 341 976 605 1547 128 278 542 1116 736 1490 l123 237 0 83 c-1
69 -6 93 -29 145 -33 73 -107 147 -181 183 -61 29 -198 38 -256 16z m-6339
-2011 c40 -20 61 -50 67 -94 l6 -41 -49 15 c-64 19 -96 45 -107 84 -16 62 9
73 83 36z m2511 -3 c31 -17 54 -54 64 -100 7 -32 6 -33 -22 -26 -53 12 -111
42 -122 62 -6 12 -11 37 -11 56 0 35 1 35 33 29 17 -3 44 -13 58 -21z m2439
10 c63 -31 104 -120 116 -253 6 -64 4 -71 -56 -225 -206 -526 -359 -866 -543
-1200 -196 -356 -448 -629 -617 -669 -78 -18 -169 180 -170 366 0 201 90 501
241 799 65 128 272 483 371 635 123 189 290 387 396 468 120 92 193 114 262
79z m-5440 -185 c0 -7 14 -41 30 -76 60 -127 209 -234 388 -279 39 -10 74 -21
77 -23 12 -13 -122 -382 -220 -604 -85 -192 -237 -490 -312 -607 -155 -245
-346 -436 -515 -513 -78 -36 -188 -51 -260 -36 -67 14 -105 41 -125 90 -21 50
-28 221 -14 322 78 546 498 1370 859 1686 68 59 92 69 92 40z m2500 10 c0 -37
72 -158 125 -210 79 -77 270 -167 354 -167 31 0 27 -22 -30 -182 -148 -412
-342 -826 -503 -1073 -156 -238 -363 -433 -526 -494 -89 -33 -214 -35 -282 -4
-58 26 -75 57 -90 163 -52 366 276 1204 667 1705 63 81 257 275 275 275 6 0
10 -6 10 -13z m-1288 -409 c-31 -57 -78 -154 -104 -218 -51 -123 -56 -130 -34
-41 16 64 32 166 41 263 l6 66 57 15 c97 25 96 27 34 -85z"/>
<path d="M7011 4370 c-179 -64 -320 -264 -538 -760 -71 -161 -99 -233 -249
-648 -68 -189 -128 -351 -133 -360 -6 -11 -38 -24 -88 -35 -111 -26 -269 -80
-355 -122 -71 -34 -138 -94 -138 -122 0 -12 -4 -11 -22 1 -33 24 -852 24 -885
1 -12 -9 -79 -111 -149 -228 -70 -117 -132 -218 -138 -224 -9 -10 -42 38 -141
205 -72 119 -140 227 -152 240 l-22 22 -451 0 -451 0 -24 -25 c-14 -13 -25
-31 -25 -39 0 -8 129 -189 287 -403 157 -213 308 -418 336 -456 l49 -67 -88
-123 c-49 -67 -216 -297 -371 -511 -159 -218 -283 -399 -283 -411 0 -12 6 -30
14 -41 14 -18 32 -19 430 -22 228 -2 430 1 448 6 29 7 48 34 203 289 93 155
174 278 178 274 5 -5 81 -129 170 -277 109 -180 170 -273 187 -281 32 -16 864
-19 905 -3 24 9 32 6 63 -21 48 -42 91 -59 152 -59 83 0 153 39 186 102 8 15
21 65 29 110 31 181 82 350 217 733 143 402 390 1023 416 1046 4 3 86 -4 182
-17 271 -35 490 -48 610 -35 210 23 328 68 408 156 70 77 96 145 96 260 0 78
-3 98 -28 152 -34 75 -94 134 -174 171 -50 24 -69 27 -159 27 l-102 0 -128
-66 c-70 -37 -150 -74 -178 -82 -51 -17 -296 -60 -302 -53 -14 14 417 871 507
1006 128 194 168 338 126 458 -9 23 -32 67 -52 97 -90 136 -230 186 -373 135z
m-1507 -2183 c14 -76 122 -157 207 -157 22 0 75 14 116 30 42 17 78 28 80 26
3 -3 -13 -60 -35 -128 -55 -166 -173 -571 -216 -743 -59 -233 -104 -482 -141
-772 l-7 -53 -339 471 -340 470 327 445 c180 244 331 444 335 444 4 0 10 -15
13 -33z"/>
<path d="M1680 2374 c-14 -2 -59 -9 -100 -15 -408 -59 -707 -291 -826 -641
-48 -142 -59 -221 -59 -428 0 -151 4 -214 18 -278 37 -168 91 -294 174 -403
220 -291 579 -423 1097 -406 393 13 651 103 842 292 125 124 188 270 201 461
9 133 40 124 -419 124 -365 0 -379 -1 -398 -20 -12 -12 -20 -33 -20 -55 0
-149 -155 -236 -368 -206 -47 7 -102 21 -122 31 -69 35 -119 115 -138 218 l-9
52 709 0 c711 0 738 1 760 34 11 16 10 260 -2 354 -30 233 -110 425 -236 561
-158 169 -328 256 -601 306 -84 16 -445 29 -503 19z m335 -608 c68 -29 127
-100 136 -166 l4 -25 -292 -3 c-233 -2 -293 0 -293 10 0 21 39 90 69 121 32
35 89 65 144 77 60 13 186 5 232 -14z"/>
</g>
</svg>
